ModelForces
version=1
nRows=4
nColumns=206
inDegrees=no

This file contains the forces exerted on a model during a simulation.

A force is a generalized force, meaning that it can be either a force (N) or a torque (Nm).

Units are S.I. units (second, meters, Newtons, ...)
Angles are in degrees.

endheader
time	glut_med1_r	glut_med2_r	glut_med3_r	glut_min1_r	glut_min2_r	glut_min3_r	semimem_r	semiten_r	bifemlh_r	bifemsh_r	sar_r	add_long_r	add_brev_r	add_mag1_r	add_mag2_r	add_mag3_r	tfl_r	pect_r	grac_r	glut_max1_r	glut_max2_r	glut_max3_r	iliacus_r	psoas_r	quad_fem_r	gem_r	peri_r	rect_fem_r	vas_med_r	vas_int_r	vas_lat_r	med_gas_r	lat_gas_r	soleus_r	tib_post_r	flex_dig_r	flex_hal_r	tib_ant_r	per_brev_r	per_long_r	per_tert_r	ext_dig_r	ext_hal_r	glut_med1_l	glut_med2_l	glut_med3_l	glut_min1_l	glut_min2_l	glut_min3_l	semimem_l	semiten_l	bifemlh_l	bifemsh_l	sar_l	add_long_l	add_brev_l	add_mag1_l	add_mag2_l	add_mag3_l	tfl_l	pect_l	grac_l	glut_max1_l	glut_max2_l	glut_max3_l	iliacus_l	psoas_l	quad_fem_l	gem_l	peri_l	rect_fem_l	vas_med_l	vas_int_l	vas_lat_l	med_gas_l	lat_gas_l	soleus_l	tib_post_l	flex_dig_l	flex_hal_l	tib_ant_l	per_brev_l	per_long_l	per_tert_l	ext_dig_l	ext_hal_l	ercspn_r	ercspn_l	intobl_r	intobl_l	extobl_r	extobl_l	femur_lat_meniscii_l.femur_lat_l.force.X	femur_lat_meniscii_l.femur_lat_l.force.Y	femur_lat_meniscii_l.femur_lat_l.force.Z	femur_lat_meniscii_l.femur_lat_l.torque.X	femur_lat_meniscii_l.femur_lat_l.torque.Y	femur_lat_meniscii_l.femur_lat_l.torque.Z	femur_lat_meniscii_l.meniscus_lat_l.force.X	femur_lat_meniscii_l.meniscus_lat_l.force.Y	femur_lat_meniscii_l.meniscus_lat_l.force.Z	femur_lat_meniscii_l.meniscus_lat_l.torque.X	femur_lat_meniscii_l.meniscus_lat_l.torque.Y	femur_lat_meniscii_l.meniscus_lat_l.torque.Z	femur_med_meniscii_l.femur_med_l.force.X	femur_med_meniscii_l.femur_med_l.force.Y	femur_med_meniscii_l.femur_med_l.force.Z	femur_med_meniscii_l.femur_med_l.torque.X	femur_med_meniscii_l.femur_med_l.torque.Y	femur_med_meniscii_l.femur_med_l.torque.Z	femur_med_meniscii_l.meniscus_med_l.force.X	femur_med_meniscii_l.meniscus_med_l.force.Y	femur_med_meniscii_l.meniscus_med_l.force.Z	femur_med_meniscii_l.meniscus_med_l.torque.X	femur_med_meniscii_l.meniscus_med_l.torque.Y	femur_med_meniscii_l.meniscus_med_l.torque.Z	femur_lat_meniscii_r.femur_lat_r.force.X	femur_lat_meniscii_r.femur_lat_r.force.Y	femur_lat_meniscii_r.femur_lat_r.force.Z	femur_lat_meniscii_r.femur_lat_r.torque.X	femur_lat_meniscii_r.femur_lat_r.torque.Y	femur_lat_meniscii_r.femur_lat_r.torque.Z	femur_lat_meniscii_r.meniscus_lat_r.force.X	femur_lat_meniscii_r.meniscus_lat_r.force.Y	femur_lat_meniscii_r.meniscus_lat_r.force.Z	femur_lat_meniscii_r.meniscus_lat_r.torque.X	femur_lat_meniscii_r.meniscus_lat_r.torque.Y	femur_lat_meniscii_r.meniscus_lat_r.torque.Z	femur_med_meniscii_r.femur_med_r.force.X	femur_med_meniscii_r.femur_med_r.force.Y	femur_med_meniscii_r.femur_med_r.force.Z	femur_med_meniscii_r.femur_med_r.torque.X	femur_med_meniscii_r.femur_med_r.torque.Y	femur_med_meniscii_r.femur_med_r.torque.Z	femur_med_meniscii_r.meniscus_med_r.force.X	femur_med_meniscii_r.meniscus_med_r.force.Y	femur_med_meniscii_r.meniscus_med_r.force.Z	femur_med_meniscii_r.meniscus_med_r.torque.X	femur_med_meniscii_r.meniscus_med_r.torque.Y	femur_med_meniscii_r.meniscus_med_r.torque.Z	femur_med_tibia_l.tibia_upper_l.force.X	femur_med_tibia_l.tibia_upper_l.force.Y	femur_med_tibia_l.tibia_upper_l.force.Z	femur_med_tibia_l.tibia_upper_l.torque.X	femur_med_tibia_l.tibia_upper_l.torque.Y	femur_med_tibia_l.tibia_upper_l.torque.Z	femur_med_tibia_l.femur_med_l.force.X	femur_med_tibia_l.femur_med_l.force.Y	femur_med_tibia_l.femur_med_l.force.Z	femur_med_tibia_l.femur_med_l.torque.X	femur_med_tibia_l.femur_med_l.torque.Y	femur_med_tibia_l.femur_med_l.torque.Z	femur_lat_tibia_l.tibia_upper_l.force.X	femur_lat_tibia_l.tibia_upper_l.force.Y	femur_lat_tibia_l.tibia_upper_l.force.Z	femur_lat_tibia_l.tibia_upper_l.torque.X	femur_lat_tibia_l.tibia_upper_l.torque.Y	femur_lat_tibia_l.tibia_upper_l.torque.Z	femur_lat_tibia_l.femur_lat_l.force.X	femur_lat_tibia_l.femur_lat_l.force.Y	femur_lat_tibia_l.femur_lat_l.force.Z	femur_lat_tibia_l.femur_lat_l.torque.X	femur_lat_tibia_l.femur_lat_l.torque.Y	femur_lat_tibia_l.femur_lat_l.torque.Z	femur_med_tibia_r.tibia_upper_r.force.X	femur_med_tibia_r.tibia_upper_r.force.Y	femur_med_tibia_r.tibia_upper_r.force.Z	femur_med_tibia_r.tibia_upper_r.torque.X	femur_med_tibia_r.tibia_upper_r.torque.Y	femur_med_tibia_r.tibia_upper_r.torque.Z	femur_med_tibia_r.femur_med_r.force.X	femur_med_tibia_r.femur_med_r.force.Y	femur_med_tibia_r.femur_med_r.force.Z	femur_med_tibia_r.femur_med_r.torque.X	femur_med_tibia_r.femur_med_r.torque.Y	femur_med_tibia_r.femur_med_r.torque.Z	femur_lat_tibia_r.tibia_upper_r.force.X	femur_lat_tibia_r.tibia_upper_r.force.Y	femur_lat_tibia_r.tibia_upper_r.force.Z	femur_lat_tibia_r.tibia_upper_r.torque.X	femur_lat_tibia_r.tibia_upper_r.torque.Y	femur_lat_tibia_r.tibia_upper_r.torque.Z	femur_lat_tibia_r.femur_lat_r.force.X	femur_lat_tibia_r.femur_lat_r.force.Y	femur_lat_tibia_r.femur_lat_r.force.Z	femur_lat_tibia_r.femur_lat_r.torque.X	femur_lat_tibia_r.femur_lat_r.torque.Y	femur_lat_tibia_r.femur_lat_r.torque.Z	aACL_R	pACL_R	aPCL_R	pPCL_R	aMCL_R	mMCL_R	pMCL_R	aLCL_R	mLCL_R	pLCL_R	aPCL_L	pPCL_L	aMCL_L	aLCL_L	ground_prescribedForce_0_fx	ground_prescribedForce_0_fy	ground_prescribedForce_0_fz
      0.23434005	      9.11365342	      6.73934535	      7.22951853	      3.13955800	      3.70023203	      3.85343308	     12.54415765	      5.37022603	     10.23148517	      8.44642642	      1.89226736	      6.69058443	      4.88214579	      3.46795731	      2.92733223	      4.84360206	      4.57983395	      2.64625856	      1.97335734	      4.34900809	      6.61238311	      4.95145094	     24.60066625	     15.17455285	      4.29784792	      3.17187523	      5.26180904	     14.56666194	      9.71788128	      9.47194490	     11.76335530	      4.50649952	      1.89167653	      8.18938268	      8.76737773	      2.71199372	      2.22387316	     15.83579387	      4.58045550	      9.34784231	      8.86911657	      6.51730083	      2.52878246	      9.11365342	      6.73934535	      7.22951853	      3.13955800	      3.70023203	      3.85343308	     10.98327501	      4.92166814	      9.56082803	      8.55251394	      1.79307460	      6.69058443	      4.88214579	      3.46795731	      2.92733223	      4.84360206	      4.62734382	      2.64625856	      1.84437465	      4.34900809	      6.61238311	      4.95145094	     24.60066625	     15.17455285	      4.29784792	      3.17187523	      5.26180904	     13.22930650	      7.87551090	      9.06436554	      9.73921148	     18.57788092	      8.62902504	     39.99908640	     45.96996905	      3.68927809	      3.78917208	     10.39007370	      5.46762773	     14.97594310	      2.34754425	      6.76158096	      2.12644024	     29.53793124	     29.53793124	     10.78809768	     10.78809768	     28.41204273	     28.41204273	      2.76307435	     50.99597937	     -9.56042239	      5.21997485	     -0.02578839	      1.48581788	     -2.76307435	    -50.99597937	      9.56042239	     -1.74637766	      0.02558040	     -0.48301696	     -3.31599387	     20.97615968	     -3.40468921	      0.94473225	     -0.02138609	     -1.00501789	      3.31599387	    -20.97615968	      3.40468921	      0.28075727	      0.00368718	     -0.29758878	     22.20366180	     53.62126933	      8.08022777	     -4.71384639	      0.54694980	      9.34120621	    -22.20366180	    -53.62126933	     -8.08022777	      1.86898691	     -0.67463992	     -0.67644998	     65.27831895	    103.63734667	      3.92033453	      0.52035106	     -1.37021652	     27.59975503	    -65.27831895	   -103.63734667	     -3.92033453	     -1.50732820	      1.03210358	     -2.22708927	      0.00000000	      0.00000000	      0.00000000	      0.00000000	      0.00000000	      0.00000000	      0.00000000	      0.00000000	      0.00000000	      0.00000000	      0.00000000	      0.00000000	      0.00000000	      0.00000000	      0.00000000	      0.00000000	      0.00000000	      0.00000000	      0.00000000	      0.00000000	      0.00000000	      0.00000000	      0.00000000	      0.00000000	      0.00000000	      0.00000000	      0.00000000	      0.00000000	      0.00000000	      0.00000000	      0.00000000	      0.00000000	      0.00000000	      0.00000000	      0.00000000	      0.00000000	      0.00000000	      0.00000000	      0.00000000	      0.00000000	      0.00000000	      0.00000000	      0.00000000	      0.00000000	      0.00000000	      0.00000000	      0.00000000	      0.00000000	      2.48174305	     36.58565251	      0.00000000	      0.00000000	      0.00000000	      8.43324903	     18.94777747	     -0.35942381	      0.00000000	      1.95216492	      0.00000000	      0.00000000	      0.00000001	      0.00000000	    110.00000000	      0.00000000	      0.00000000
      0.23803299	      9.03979573	      6.68889235	      7.17472449	      3.11704614	      3.67575394	      3.82227610	     12.44966797	      5.33054081	     10.09332167	      8.36458939	      1.87845988	      6.63990617	      4.84746390	      3.44215379	      2.90502970	      4.80318797	      4.52594151	      2.62715604	      1.96031299	      4.31640899	      6.56268141	      4.91358434	     24.50858284	     15.07004136	      4.26635413	      3.15682730	      5.20892874	     14.42713870	      9.65063043	      9.38847974	     11.63629599	      4.49007501	      1.87110737	      8.15591470	      8.60323936	      2.79055201	      2.18136878	     15.69464094	      4.60937513	      9.30618886	      0.00000000	      6.25211391	      2.54084605	      9.03979573	      6.68889235	      7.17472449	      3.11704614	      3.67575394	      3.82227610	     10.87936087	      4.88213127	      9.47308125	      8.48978998	      1.78027725	      6.63990617	      4.84746390	      3.44215379	      2.90502970	      4.80318797	      4.60229878	      2.62715604	      1.83097963	      4.31640899	      6.56268141	      4.91358434	     24.50858284	     15.07004136	      4.26635413	      3.15682730	      5.20892874	     13.10936054	      7.81500278	      8.99344230	      9.66325565	     18.37968683	      8.53685143	     39.59622357	     45.80283062	      3.64671226	      3.74953414	     10.29892761	      5.41522264	     14.86280732	      2.33140076	      6.69004100	      2.10432795	     29.32564944	     29.32564944	     10.70386990	     10.70386990	     28.33622934	     28.33622934	      2.76307435	     50.99597937	     -9.56042239	      5.21997485	     -0.02578839	      1.48581788	     -2.76307435	    -50.99597937	      9.56042239	     -1.74637766	      0.02558040	     -0.48301696	     -3.31599387	     20.97615968	     -3.40468921	      0.94473225	     -0.02138609	     -1.00501789	      3.31599387	    -20.97615968	      3.40468921	      0.28075727	      0.00368718	     -0.29758878	     22.46845823	     54.77109924	      8.34112651	     -4.84997884	      0.55347585	      9.45339102	    -22.46845823	    -54.77109924	     -8.34112651	      1.90959575	     -0.68301292	     -0.68230214	     64.36319833	    102.43870940	      3.99260799	      0.46169639	     -1.34924190	     27.21419537	    -64.36319833	   -102.43870940	     -3.99260799	     -1.48379683	      1.01620586	     -2.19259662	      0.00000000	      0.00000000	      0.00000000	      0.00000000	      0.00000000	      0.00000000	      0.00000000	      0.00000000	      0.00000000	      0.00000000	      0.00000000	      0.00000000	      0.00000000	      0.00000000	      0.00000000	      0.00000000	      0.00000000	      0.00000000	      0.00000000	      0.00000000	      0.00000000	      0.00000000	      0.00000000	      0.00000000	      0.00000000	      0.00000000	      0.00000000	      0.00000000	      0.00000000	      0.00000000	      0.00000000	      0.00000000	      0.00000000	      0.00000000	      0.00000000	      0.00000000	      0.00000000	      0.00000000	      0.00000000	      0.00000000	      0.00000000	      0.00000000	      0.00000000	      0.00000000	      0.00000000	      0.00000000	      0.00000000	      0.00000000	      2.50803476	     37.17731359	      0.00000000	      0.00000000	      0.00000000	      8.68010339	     19.35936132	     -0.38761228	      0.00000000	      1.89872724	      0.00000000	      0.00000000	      0.00000001	      0.00000000	    110.00000000	      0.00000000	      0.00000000
      0.23840228	      9.03260628	      6.68398037	      7.16939013	      3.11485394	      3.67337072	      3.81924318	     12.44069798	      5.32679580	     10.08020988	      8.35847770	      1.87745397	      6.63497250	      4.84408497	      3.43964164	      2.90285860	      4.79925405	      4.52072628	      2.62529599	      1.95919276	      4.31323541	      6.55784287	      4.90989813	     24.49961939	     15.05986983	      4.26328774	      3.15536287	      5.20377311	     14.41392568	      9.64497178	      9.38123299	     11.62501066	      4.48916252	      1.86953564	      8.15407998	      8.58805672	      2.79754073	      2.17640199	     15.68084235	      4.61174412	      9.30197208	      3.28813571	      6.22879463	      2.54300286	      9.03260628	      6.68398037	      7.16939013	      3.11485394	      3.67337072	      3.81924318	     10.86923838	      4.87828263	      9.46453589	      8.48368292	      1.77903090	      6.63497250	      4.84408497	      3.43964164	      2.90285860	      4.79925405	      4.59986090	      2.62529599	      1.82967537	      4.31323541	      6.55784287	      4.90989813	     24.49961939	     15.05986983	      4.26328774	      3.15536287	      5.20377311	     13.09768036	      7.80911296	      8.98653900	      9.65586277	     18.36033964	      8.52785388	     39.55694794	     45.78655150	      3.64256569	      3.74567464	     10.29005369	      5.41011719	     14.85177709	      2.32982948	      6.68306266	      2.10217217	     29.30497809	     29.30497809	     10.69567059	     10.69567059	     28.32884983	     28.32884983	      2.76307435	     50.99597937	     -9.56042239	      5.21997485	     -0.02578839	      1.48581788	     -2.76307435	    -50.99597937	      9.56042239	     -1.74637766	      0.02558040	     -0.48301696	     -3.31599387	     20.97615968	     -3.40468921	      0.94473225	     -0.02138609	     -1.00501789	      3.31599387	    -20.97615968	      3.40468921	      0.28075727	      0.00368718	     -0.29758878	     22.56522486	     54.91257933	      8.34345508	     -4.85424267	      0.55573585	      9.49429812	    -22.56522486	    -54.91257933	     -8.34345508	      1.91360226	     -0.68576696	     -0.68541079	     64.36849880	    102.34324865	      3.94078119	      0.48114905	     -1.34931779	     27.21662272	    -64.36849880	   -102.34324865	     -3.94078119	     -1.48386304	      1.01641436	     -2.19274856	      0.00000000	      0.00000000	      0.00000000	      0.00000000	      0.00000000	      0.00000000	      0.00000000	      0.00000000	      0.00000000	      0.00000000	      0.00000000	      0.00000000	      0.00000000	      0.00000000	      0.00000000	      0.00000000	      0.00000000	      0.00000000	      0.00000000	      0.00000000	      0.00000000	      0.00000000	      0.00000000	      0.00000000	      0.00000000	      0.00000000	      0.00000000	      0.00000000	      0.00000000	      0.00000000	      0.00000000	      0.00000000	      0.00000000	      0.00000000	      0.00000000	      0.00000000	      0.00000000	      0.00000000	      0.00000000	      0.00000000	      0.00000000	      0.00000000	      0.00000000	      0.00000000	      0.00000000	      0.00000000	      0.00000000	      0.00000000	      2.52435631	     37.24457132	      0.00000000	      0.00000000	      0.00000000	      8.68015570	     19.37448389	     -0.55375975	      0.00000000	      1.73087350	      0.00000000	      0.00000000	      0.00000001	      0.00000000	    110.00000000	      0.00000000	      0.00000000
      0.23917208	      9.01773210	      6.67381756	      7.15835359	      3.11031818	      3.66843984	      3.81296838	     12.42207196	      5.31903601	     10.05240560	      8.34323488	      1.87535315	      6.62476496	      4.83709469	      3.43444406	      2.89836677	      4.79111524	      4.50975917	      2.62144748	      1.95685853	      4.30666943	      6.54783219	      4.90227165	     24.48107505	     15.03882706	      4.25694331	      3.15233332	      5.19310199	     14.38618135	      9.63374483	      9.36610596	     11.60146481	      4.48540098	      1.86511624	      8.14437498	      8.55286748	      2.81085816	      2.16492816	     15.65167698	      4.61900333	      9.29554344	      6.79268604	      6.18337574	      2.54811851	      9.01773210	      6.67381756	      7.15835359	      3.11031818	      3.66843984	      3.81296838	     10.84829193	      4.87032018	      9.44685423	      8.47104732	      1.77645221	      6.62476496	      4.83709469	      3.43444406	      2.89836677	      4.79111524	      4.59481722	      2.62144748	      1.82697680	      4.30666943	      6.54783219	      4.90227165	     24.48107505	     15.03882706	      4.25694331	      3.15233332	      5.19310199	     13.07351288	      7.79692767	      8.97225711	      9.64056817	     18.32028093	      8.50922442	     39.47565645	     45.75286628	      3.63398489	      3.73768895	     10.27169362	      5.39955217	     14.82894671	      2.32657876	      6.66861714	      2.09771026	     29.26220809	     29.26220809	     10.67870689	     10.67870689	     28.31358258	     28.31358258	      2.76307435	     50.99597937	     -9.56042239	      5.21997485	     -0.02578839	      1.48581788	     -2.76307435	    -50.99597937	      9.56042239	     -1.74637766	      0.02558040	     -0.48301696	     -3.31599387	     20.97615968	     -3.40468921	      0.94473225	     -0.02138609	     -1.00501789	      3.31599387	    -20.97615968	      3.40468921	      0.28075727	      0.00368718	     -0.29758878	     22.73039412	     55.17809779	      8.41982816	     -4.89269481	      0.55965048	      9.56414957	    -22.73039412	    -55.17809779	     -8.41982816	      1.92378763	     -0.69066634	     -0.69061501	     63.98815755	    102.23651613	      3.83009108	      0.52545494	     -1.34057649	     27.05592096	    -63.98815755	   -102.23651613	     -3.83009108	     -1.48625589	      1.00992674	     -2.17808921	      0.00000000	      0.00000000	      0.00000000	      0.00000000	      0.00000000	      0.00000000	      0.00000000	      0.00000000	      0.00000000	      0.00000000	      0.00000000	      0.00000000	      0.00000000	      0.00000000	      0.00000000	      0.00000000	      0.00000000	      0.00000000	      0.00000000	      0.00000000	      0.00000000	      0.00000000	      0.00000000	      0.00000000	      0.00000000	      0.00000000	      0.00000000	      0.00000000	      0.00000000	      0.00000000	      0.00000000	      0.00000000	      0.00000000	      0.00000000	      0.00000000	      0.00000000	      0.00000000	      0.00000000	      0.00000000	      0.00000000	      0.00000000	      0.00000000	      0.00000000	      0.00000000	      0.00000000	      0.00000000	      0.00000000	      0.00000000	      2.54631981	     37.37885524	      0.00000000	      0.00000000	      0.00000000	      8.73560451	     19.46360876	     -0.64305471	      0.00000000	      1.63757673	      0.00000000	      0.00000000	      0.00000001	      0.00000000	    110.00000000	      0.00000000	      0.00000000
